# xmcd
# 
# Track frame offsets:
#     150
#     18140
#     35727
#     54725
#     70443
#     89543
#     108898
#     129505
#     147527
#     167919
#     189312
#     212857
#     229631
#     248170
# 
# Disc length: 3406
# 
# Revision: 1
# Processed by: cddbd v1.5.2PL0 Copyright (c) Steve Scherf et al.
# Submitted via: fre:ac v1.0.17
# 
DISCID=ca0d4c0e
DTITLE=Sergent Garcia - Una y Otra Vez
DYEAR=2011
DGENRE=Salsa
TTITLE0=Una y Otra Vez
TTITLE1=Yo Soy Salsamuffin
TTITLE2=Chacun Son Combat
TTITLE3=Ojos Inocentes 
TTITLE4=Mi Son Mi Friend
TTITLE5=Meme Si 
TTITLE6=Vasito de Agua 
TTITLE7=El Baile del Diablo 
TTITLE8=En Mi Mochila 
TTITLE9=Brujeria
TTITLE10=Bolero Nuevo 
TTITLE11=To Mi To Mi
TTITLE12=Acho Bai Bai 
TTITLE13=En el domino
EXTD=YEAR: 2011
EXTT0=
EXTT1=
EXTT2=
EXTT3=
EXTT4=
EXTT5=
EXTT6=
EXTT7=
EXTT8=
EXTT9=
EXTT10=
EXTT11=
EXTT12=
EXTT13=
PLAYORDER=
